<?xml version="1.0" encoding="utf-8"?>
<!-- Generator: Adobe Illustrator 22.0.1, SVG Export Plug-In . SVG Version: 6.00 Build 0)  -->
<svg version="1.1" id="レイヤー_1" xmlns="http://www.w3.org/2000/svg" xmlns:xlink="http://www.w3.org/1999/xlink" x="0px"
	 y="0px" viewBox="0 0 1417.3 1417.3" style="enable-background:new 0 0 1417.3 1417.3;" xml:space="preserve">
<style type="text/css">
	.st0{fill:#231815;}
</style>
<g>
	<path class="st0" d="M708.7,0C316.1,0,0,318.6,0,710.3c0,388.4,316.1,707,708.7,707s708.7-315.3,708.7-707S1101.3,0,708.7,0
		 M931.6,643.9H678.7v-59.7h252.9V643.9z M898.3,504.5l-10-10c-46.6-36.5-103.1-56.4-163-56.4c-153,0-269.5,116.2-269.5,268.9
		s116.4,268.9,269.5,268.9c49.9,0,99.8-13.3,146.4-43.2v-99.6h-193v-59.7h252.9v189.2l-6.7,3.3c-56.6,43.2-126.4,69.7-199.6,69.7
		c-189.6,0-329.4-139.4-329.4-325.3S539,385,725.3,385c76.5,0,143.1,23.2,199.6,69.7l13.3,10L898.3,504.5z"/>
</g>
</svg>
